<?xml version="1.0" encoding="UTF-8"?><svg id="Ebene_2" xmlns="http://www.w3.org/2000/svg" viewBox="0 0 426.81 72.79"><defs><style>.cls-1,.cls-2{fill:#049669;}.cls-2{stroke:#049669;stroke-miterlimit:10;stroke-width:5px;}</style></defs><g id="Ebene_1-2"><path class="cls-1" d="M57.85,71.48c0-6.65.12-7.84.12-8.31h-.24c-3.21,3.68-10.93,9.62-22.93,9.62C15.09,72.79,0,58.42,0,38.22S14.85,3.66,35.4,3.66c13.18,0,26.01,6.06,31.72,19.6l-11.4,3.09c-3.09-5.94-10.1-11.4-20.19-11.4-13.54,0-22.93,8.91-22.93,23.28s9.5,23.28,24.47,23.28c9.5,0,17.94-4.75,20.67-8.43v-6.89h-19.12v-11.05h30.41v36.35h-11.17Z"/><path class="cls-1" d="M82.2,4.96h12.47v54.88h32.78v11.64h-45.26V4.96Z"/><path class="cls-1" d="M151.46,55.8l-5.82,15.68h-12.71L158.94,4.96h15.09l26.01,66.52h-12.95l-5.82-15.68h-29.81ZM172.6,32.28c-4.28-11.4-5.94-16.75-6.06-16.87h-.36l-6.41,17.58-4.4,12h21.98l-4.75-12.71Z"/><path class="cls-1" d="M233.42,4.96c21.38,0,36.94,12.59,36.94,33.5s-15.56,33.02-36.59,33.02h-24.71V4.96h24.35ZM233.66,59.84c14.37,0,24.11-6.65,24.11-21.38s-9.62-21.86-24.47-21.86h-11.76v43.24h12.12Z"/><path class="cls-1" d="M337.24,4.96h12.47v66.52h-12.47V4.96Z"/><path class="cls-1" d="M391.41,3.66c20.2,0,35.4,14.49,35.4,34.57s-15.2,34.57-35.4,34.57-35.16-14.37-35.16-34.57,15.09-34.57,35.16-34.57ZM391.41,61.38c13.07,0,22.69-9.38,22.69-23.16s-9.62-23.16-22.69-23.16-22.57,9.38-22.57,23.16,9.5,23.16,22.57,23.16Z"/><circle class="cls-1" cx="305.39" cy="30.2" r="5.81"/><circle class="cls-1" cx="324.22" cy="30.2" r="5.81"/><path class="cls-2" d="M286.37,67.74c-1.13-.17-2.06-.89-2.62-1.97-1.32-2.46-1.14-7.16.54-14.42,1.28-5.53,3.46-12.54,6.43-20.87,5-14.06,10.75-27.21,10.79-27.32.24-.56.95-.81,1.5-.56.56.24.8.89.56,1.45-.03.16-5.74,13.21-10.75,27.21-2.98,8.22-5.07,15.12-6.36,20.6-1.87,8.23-1.44,11.54-.74,12.87.35.64.73.8,1.06.86.59.08,1.27.1,2.05,0,2.17-.28,4.87-1.32,7.02-2.23,3.48-1.51,7.72-3.69,12.55-6.52,8.24-4.91,15.51-10.06,15.61-10.13.48-.33,1.18-.21,1.56.27.33.54.21,1.23-.27,1.56-.1.07-7.41,5.28-15.76,10.2-4.93,2.9-9.21,5.14-12.8,6.66-3.08,1.35-5.61,2.1-7.63,2.36-1.03.13-1.98.15-2.73-.01Z"/></g></svg>